<?xml version="1.0" standalone="no"?>
<!DOCTYPE svg PUBLIC "-//W3C//DTD SVG 20010904//EN"
 "http://www.w3.org/TR/2001/REC-SVG-20010904/DTD/svg10.dtd">
<svg version="1.0" xmlns="http://www.w3.org/2000/svg"
 width="800.000000pt" height="800.000000pt" viewBox="0 0 800.000000 800.000000"
 preserveAspectRatio="xMidYMid meet">
<metadata>
Created by potrace 1.14, written by Peter Selinger 2001-2017
</metadata>
<g transform="translate(0.000000,800.000000) scale(0.100000,-0.100000)"
fill="#000000" stroke="none">
<path d="M804 7546 c-112 -21 -183 -45 -265 -87 -237 -123 -395 -352 -472
-684 -21 -88 -21 -114 -24 -1267 l-4 -1178 385 0 385 0 3 128 3 127 1023 3
1022 2 0 -130 0 -130 385 0 385 0 0 990 0 990 -382 -2 -383 -3 -3 -232 -2
-233 -323 0 -322 0 0 357 c-1 392 -11 506 -62 667 -115 367 -396 596 -823 671
-128 23 -431 29 -526 11z m602 -1258 c48 -26 111 -104 134 -164 14 -39 20 -79
20 -139 l0 -85 -372 2 -373 3 -3 89 c-5 162 25 230 128 281 62 32 82 34 260
32 142 -2 181 -6 206 -19z"/>
<path d="M2860 4038 l0 -93 -541 -380 c-297 -209 -549 -384 -559 -389 -15 -7
-108 61 -484 349 l-466 357 0 90 0 89 -322 -6 c-178 -3 -351 -8 -385 -11 l-63
-6 0 -577 0 -578 643 -429 642 -429 -640 -5 -640 -5 0 -770 0 -770 382 -3 382
-2 3 147 3 148 1022 3 1022 2 3 -147 3 -148 383 -3 382 -2 0 775 0 775 -601 0
c-330 0 -598 3 -596 8 3 4 273 167 601 362 l595 355 1 693 0 692 -385 0 -385
0 0 -92z"/>
<path d="M3920 3283 l0 -526 677 -1184 677 -1183 1343 0 1343 0 0 765 0 765
-159 0 c-120 0 -163 3 -173 13 -7 8 -310 433 -673 945 l-660 932 -1187 0
-1188 0 0 -527z"/>
</g>
</svg>
